<svg width="550" height="348" viewBox="0 0 550 348" fill="none" xmlns="http://www.w3.org/2000/svg">
<path d="M256.302 127.921L261.064 126.733V76.0615L256.302 74.8739V73.6863H276.538C286.008 73.6863 293.255 76.1143 298.281 80.9703C303.36 85.8263 305.899 92.6353 305.899 101.397C305.899 110.159 303.36 116.968 298.281 121.824C293.255 126.68 286.008 129.108 276.538 129.108H256.302V127.921ZM276.538 127.129C281.458 127.129 285.267 125.149 287.965 121.191C290.663 117.179 292.012 110.581 292.012 101.397C292.012 92.213 290.663 85.6416 287.965 81.6829C285.267 77.6714 281.458 75.6656 276.538 75.6656H274.157V127.129H276.538Z" fill="white"/>
<path d="M313.029 129.108V127.921L317.79 126.733V76.0615L313.029 74.8739V73.6863H335.645V74.8739L330.884 76.0615V126.733L335.645 127.921V129.108H313.029Z" fill="white"/>
<path d="M342.787 127.921L347.548 126.733V76.0615L342.787 74.8739V73.6863H365.403V74.8739L360.642 76.0615V127.129H377.703C377.703 123.803 378.55 120.716 380.243 117.865C380.983 116.651 381.856 115.649 382.861 114.857H385.242V129.108H342.787V127.921Z" fill="white"/>
<path d="M391.221 127.921L395.983 126.733V76.0615L391.221 74.8739V73.6863H412.647C420.689 73.6863 426.587 74.9794 430.344 77.5658C434.153 80.0994 436.057 83.4247 436.057 87.5417C436.057 90.392 435.237 92.6881 433.597 94.4299C431.957 96.1717 429.867 97.4649 427.328 98.3094C424.63 99.2595 421.72 99.7609 418.599 99.8137V100.21C422.461 100.368 425.82 100.949 428.677 101.951C431.587 102.902 433.994 104.379 435.898 106.385C437.856 108.391 438.835 110.951 438.835 114.065C438.835 118.763 436.904 122.458 433.042 125.149C429.18 127.789 422.911 129.108 414.234 129.108H391.221V127.921ZM412.647 99.022C414.393 99.022 416.007 98.5469 417.488 97.5968C419.022 96.594 420.239 95.2216 421.138 93.4798C422.091 91.6852 422.567 89.7058 422.567 87.5417C422.567 85.2193 422.091 83.1608 421.138 81.3662C420.239 79.5715 419.022 78.1728 417.488 77.1699C416.007 76.1671 414.393 75.6656 412.647 75.6656H409.076V99.022H412.647ZM414.234 127.129C417.514 127.129 420.186 125.968 422.249 123.645C424.313 121.323 425.344 118.129 425.344 114.065C425.344 110.001 424.313 106.807 422.249 104.485C420.186 102.163 417.514 101.001 414.234 101.001H409.076V127.129H414.234Z" fill="white"/>
<path d="M438.053 127.921L444.402 125.545L466.224 72.8945H468.605L491.221 126.733L495.189 127.921V129.108H485.666C482.915 129.108 480.667 128.501 478.921 127.287C477.175 126.02 475.879 124.384 475.033 122.378L470.986 112.877H452.02L446.782 125.545L452.734 127.921V129.108H438.053V127.921ZM452.813 110.898H470.192L461.463 90.0753L452.813 110.898Z" fill="white"/>
<path d="M497.545 127.921L502.306 126.733V76.0615L497.545 74.8739V73.6863H518.574C527.568 73.6863 534.048 75.0586 538.016 77.8033C541.984 80.4952 543.968 84.2692 543.968 89.1252C543.968 92.3978 543.095 95.0633 541.349 97.1218C539.603 99.1275 537.355 100.632 534.604 101.635C531.694 102.743 528.599 103.324 525.319 103.377V103.772C527.277 103.878 528.996 104.168 530.477 104.643C534.181 105.805 536.693 107.889 538.016 110.898L545.158 126.733L549.126 127.921V129.108H538.016C533.678 129.108 530.504 126.865 528.493 122.378L520.558 104.564H515.4V126.733L520.955 127.921V129.108H497.545V127.921ZM518.574 102.585C522.277 102.585 525.187 101.424 527.303 99.1012C529.419 96.7787 530.477 93.4534 530.477 89.1252C530.477 84.797 529.419 81.4717 527.303 79.1493C525.187 76.8268 522.277 75.6656 518.574 75.6656H515.4V102.585H518.574Z" fill="white"/>
<path d="M332.144 275.082C311.357 275.082 295.627 270.736 284.953 262.045C274.279 253.228 268.942 240.884 268.942 225.012V145.656L256.302 142.822V139.988H316.343V142.822L303.703 145.656V225.012C303.703 241.261 306.512 252.913 312.13 259.967C317.748 266.895 325.823 270.359 336.357 270.359C342.818 270.359 348.927 268.532 354.685 264.879C360.584 261.1 365.289 255.81 368.8 249.008C372.452 242.08 374.278 234.082 374.278 225.012V148.491L357.424 142.822V139.988H397.451V142.822L380.598 148.491V225.012C380.598 235.215 378.491 244.096 374.278 251.653C370.064 259.211 364.306 265.005 357.003 269.036C349.699 273.067 341.413 275.082 332.144 275.082Z" fill="white"/>
<path d="M427.99 172.108V263.746L444.844 269.414V272.248H404.817V269.414L421.67 263.746V146.601L406.923 142.822V139.988H429.044C436.487 139.988 442.316 141.185 446.529 143.578C450.743 145.971 454.745 149.183 458.537 153.214L525.952 224.068V148.491L509.098 142.822V139.988H549.126V142.822L532.272 148.491V275.082H525.952L427.99 172.108Z" fill="white"/>
<path d="M0.874023 110.515C0.874023 49.4791 50.2499 0 111.158 0C172.066 0 221.442 49.4791 221.442 110.515V236.817C221.442 297.853 172.066 347.332 111.158 347.332C50.2499 347.332 0.874023 297.853 0.874023 236.817V110.515Z" fill="white"/>
<path fill-rule="evenodd" clip-rule="evenodd" d="M219.867 236.817V110.515C219.867 50.351 171.196 1.57878 111.158 1.57878C51.1201 1.57878 2.44951 50.351 2.44951 110.515V236.817C2.44951 296.981 51.1201 345.753 111.158 345.753C171.196 345.753 219.867 296.981 219.867 236.817ZM111.158 0C50.2499 0 0.874023 49.4791 0.874023 110.515V236.817C0.874023 297.853 50.2499 347.332 111.158 347.332C172.066 347.332 221.442 297.853 221.442 236.817V110.515C221.442 49.4791 172.066 0 111.158 0Z" fill="#905925"/>
<path d="M16.6299 110.524C16.6299 58.2075 58.9521 15.7969 111.159 15.7969C163.366 15.7969 205.688 58.2075 205.688 110.524V236.826C205.688 289.142 163.366 331.553 111.159 331.553C58.9521 331.553 16.6299 289.142 16.6299 236.826V110.524Z" fill="#905925"/>
<path d="M55.773 117.703C56.2178 118.869 56.8336 119.967 57.4152 121.064C57.552 121.339 57.7573 121.613 57.8941 121.887C58.6467 124.939 58.9888 130.666 59.0914 136.565C59.2625 144.932 65.2493 151.996 73.4599 153.54C85.1599 155.7 100.897 159.267 108.149 163.759C108.423 163.93 108.697 164.136 108.936 164.342L110.852 165.988C110.852 165.988 111.023 166.159 111.092 166.194C111.092 166.194 111.092 166.194 111.092 166.228C111.092 166.228 111.092 166.228 111.126 166.228C111.126 166.228 111.126 166.228 111.16 166.228C111.16 166.228 111.16 166.228 111.16 166.194C111.228 166.125 111.331 166.091 111.399 165.988L113.315 164.342C113.555 164.136 113.828 163.93 114.102 163.759C121.355 159.267 137.092 155.7 148.792 153.54C157.002 152.031 162.989 144.932 163.16 136.565C163.297 130.666 163.605 124.939 164.357 121.887C164.494 121.613 164.7 121.339 164.836 121.064C165.418 119.967 166.034 118.869 166.478 117.703C167.436 115.406 168.155 113.005 168.771 110.605C169.968 105.804 170.686 100.9 170.994 95.9961C170.413 100.9 169.421 105.735 168.018 110.399C166.821 114.514 165.007 118.355 162.784 121.99C155.702 126.585 139.657 130.22 127.752 132.415C119.542 133.924 113.555 141.023 113.384 149.39C113.247 156.592 112.802 163.622 111.605 165.679C111.434 165.851 111.297 166.022 111.16 166.194C111.023 166.022 110.852 165.851 110.715 165.679C109.518 163.587 109.073 156.557 108.936 149.39C108.765 141.023 102.778 133.958 94.5679 132.415C82.6968 130.22 66.652 126.551 59.5362 121.99C57.3125 118.389 55.4994 114.514 54.302 110.399C52.8651 105.701 51.9073 100.866 51.3257 95.9961C51.6336 100.9 52.352 105.804 53.5494 110.605C54.1651 113.005 54.8836 115.372 55.8415 117.703H55.773Z" fill="white"/>
<path d="M162.749 155.283C155.667 159.878 139.622 163.513 127.717 165.708C119.506 167.217 113.52 174.316 113.349 182.683C113.212 189.885 112.767 196.915 111.57 198.972C111.399 199.144 111.262 199.315 111.125 199.487C110.988 199.315 110.817 199.144 110.68 198.972C109.483 196.88 109.038 189.85 108.901 182.683C108.73 174.316 102.743 167.251 94.5327 165.708C82.6616 163.513 66.6169 159.844 59.5011 155.283C57.2774 151.682 55.4643 147.807 54.2669 143.692C52.83 138.994 51.8721 134.159 51.2905 129.289C51.5984 134.193 52.3169 139.097 53.5142 143.898C54.13 146.298 54.8485 148.665 55.8063 150.996C56.2511 152.162 56.8669 153.26 57.4484 154.357C57.5853 154.632 57.7905 154.906 57.9274 155.18C58.68 158.232 59.0221 163.959 59.1248 169.858C59.2958 178.225 65.2827 185.289 73.4932 186.833C85.1932 188.993 100.93 192.56 108.183 197.052C108.456 197.223 108.73 197.429 108.97 197.635L110.885 199.281C110.885 199.281 111.056 199.452 111.125 199.487C111.125 199.487 111.125 199.487 111.125 199.521C111.125 199.521 111.125 199.521 111.159 199.521C111.159 199.521 111.159 199.521 111.193 199.521C111.193 199.521 111.193 199.521 111.193 199.487C111.262 199.418 111.364 199.384 111.433 199.281L113.349 197.635C113.588 197.429 113.862 197.223 114.135 197.052C121.388 192.56 137.125 188.993 148.825 186.833C157.035 185.324 163.022 178.225 163.193 169.858C163.33 163.959 163.638 158.232 164.391 155.18C164.528 154.906 164.733 154.632 164.87 154.357C165.451 153.26 166.067 152.162 166.512 150.996C167.47 148.699 168.188 146.298 168.804 143.898C170.001 139.097 170.72 134.193 171.028 129.289C170.446 134.193 169.454 139.028 168.051 143.692C166.854 147.807 165.041 151.648 162.817 155.283H162.749Z" fill="white"/>
<path d="M162.749 188.619C155.667 193.214 139.622 196.849 127.717 199.044C119.506 200.553 113.52 207.652 113.349 216.019C113.212 223.221 112.767 230.251 111.57 232.308C111.399 232.48 111.262 232.651 111.125 232.823C110.988 232.651 110.817 232.48 110.68 232.308C109.483 230.216 109.038 223.186 108.901 216.019C108.73 207.652 102.743 200.587 94.5327 199.044C82.6616 196.849 66.6169 193.18 59.5011 188.619C57.2774 185.018 55.4643 181.143 54.2669 177.028C52.83 172.33 51.8721 167.495 51.2905 162.625C51.5984 167.529 52.3169 172.433 53.5142 177.234C54.13 179.634 54.8485 182.001 55.8063 184.332C56.2511 185.498 56.8669 186.596 57.4484 187.693C57.5853 187.967 57.7905 188.242 57.9274 188.516C58.68 191.568 59.0221 197.295 59.1248 203.194C59.2958 211.561 65.2827 218.625 73.4932 220.169C85.1932 222.329 100.93 225.895 108.183 230.388C108.456 230.559 108.73 230.765 108.97 230.971L110.885 232.617C110.885 232.617 111.056 232.788 111.125 232.823C111.125 232.823 111.125 232.823 111.125 232.857C111.125 232.857 111.125 232.857 111.159 232.857C111.159 232.857 111.159 232.857 111.193 232.857C111.193 232.857 111.193 232.857 111.193 232.823C111.262 232.754 111.364 232.72 111.433 232.617L113.349 230.971C113.588 230.765 113.862 230.559 114.135 230.388C121.388 225.895 137.125 222.329 148.825 220.169C157.035 218.66 163.022 211.561 163.193 203.194C163.33 197.295 163.638 191.568 164.391 188.516C164.528 188.242 164.733 187.967 164.87 187.693C165.451 186.596 166.067 185.498 166.512 184.332C167.47 182.035 168.188 179.634 168.804 177.234C170.001 172.433 170.72 167.529 171.028 162.625C170.446 167.529 169.454 172.364 168.051 177.028C166.854 181.143 165.041 184.984 162.817 188.619H162.749Z" fill="white"/>
<path d="M162.749 221.947C155.667 226.542 139.622 230.177 127.717 232.372C119.506 233.881 113.52 240.98 113.349 249.347C113.212 256.549 112.767 263.579 111.57 265.636C111.399 265.808 111.262 265.979 111.125 266.151C110.988 265.979 110.817 265.808 110.68 265.636C109.483 263.545 109.038 256.514 108.901 249.347C108.73 240.98 102.743 233.915 94.5327 232.372C82.6616 230.177 66.6169 226.508 59.5011 221.947C57.2774 218.346 55.4643 214.471 54.2669 210.356C52.83 205.658 51.8721 200.823 51.2905 195.953C51.5984 200.857 52.3169 205.761 53.5142 210.562C54.13 212.962 54.8485 215.329 55.8063 217.661C56.2511 218.827 56.8669 219.924 57.4484 221.021C57.5853 221.296 57.7905 221.57 57.9274 221.844C58.68 224.896 59.0221 230.623 59.1248 236.522C59.2958 244.889 65.2827 251.953 73.4932 253.497C85.1932 255.657 100.93 259.224 108.183 263.716C108.456 263.887 108.73 264.093 108.97 264.299L110.885 265.945C110.885 265.945 111.056 266.116 111.125 266.151C111.125 266.151 111.125 266.151 111.125 266.185C111.125 266.185 111.125 266.185 111.159 266.185C111.159 266.185 111.159 266.185 111.193 266.185C111.193 266.185 111.193 266.185 111.193 266.151C111.262 266.082 111.364 266.048 111.433 265.945L113.349 264.299C113.588 264.093 113.862 263.887 114.135 263.716C121.388 259.224 137.125 255.657 148.825 253.497C157.035 251.988 163.022 244.889 163.193 236.522C163.33 230.623 163.638 224.896 164.391 221.844C164.528 221.57 164.733 221.296 164.87 221.021C165.451 219.924 166.067 218.827 166.512 217.661C167.47 215.363 168.188 212.962 168.804 210.562C170.001 205.761 170.72 200.857 171.028 195.953C170.446 200.857 169.454 205.692 168.051 210.356C166.854 214.471 165.041 218.312 162.817 221.947H162.749Z" fill="white"/>
<path d="M64.1882 83.9234C64.4619 85.0551 64.8724 86.1524 65.2829 87.2155C65.3855 87.4899 65.5224 87.7642 65.625 88.0386C65.9329 90.9535 65.5224 96.2689 64.8724 101.721C63.9829 109.437 68.6014 116.742 75.9566 119.177C86.4593 122.674 100.486 127.921 106.609 132.997C106.849 133.202 107.054 133.408 107.259 133.614L108.833 135.363C108.833 135.363 108.97 135.534 109.038 135.603C109.038 135.603 109.038 135.603 109.004 135.603C109.004 135.603 109.004 135.603 109.038 135.603C108.936 135.431 108.799 135.226 108.696 135.054C107.875 132.962 108.354 126.447 109.107 119.828C109.996 112.112 105.378 104.808 98.0224 102.373C87.3487 98.8409 73.0487 93.4569 67.0961 88.3129C65.5224 84.7122 64.325 80.9399 63.7434 76.9962C63.025 72.5039 62.7171 67.9086 62.8198 63.3477C62.4777 67.9086 62.5461 72.5039 63.025 77.0991C63.2645 79.3967 63.6408 81.6601 64.2224 83.9234H64.1882Z" fill="white"/>
<path d="M113.177 119.828C113.93 126.481 114.443 132.997 113.588 135.054C113.451 135.226 113.348 135.397 113.245 135.569C113.245 135.569 113.246 135.569 113.28 135.603C113.28 135.603 113.28 135.603 113.245 135.603C113.314 135.534 113.382 135.466 113.451 135.363L115.024 133.614C115.23 133.374 115.435 133.168 115.674 132.997C121.798 127.956 135.825 122.674 146.327 119.177C153.682 116.742 158.301 109.437 157.411 101.721C156.796 96.2689 156.351 90.9535 156.659 88.0386C156.761 87.7642 156.898 87.4899 157.001 87.2155C157.411 86.1181 157.822 85.0551 158.096 83.9234C158.677 81.6601 159.053 79.3967 159.293 77.0991C159.772 72.5039 159.806 67.9086 159.498 63.3477C159.567 67.9086 159.293 72.5039 158.575 76.9962C157.993 80.9399 156.796 84.7122 155.222 88.3129C149.269 93.4226 134.969 98.8409 124.295 102.373C116.94 104.808 112.322 112.112 113.211 119.828H113.177Z" fill="white"/>
<path d="M96.8579 95.6503C108.592 96.9191 111.158 110.362 111.158 110.362C111.124 110.328 111.192 110.328 111.158 110.362C111.158 110.362 113.69 96.8848 125.458 95.6503C125.458 95.6503 131.684 74.7316 111.739 54.1215L111.158 25.8984L110.576 54.1215C90.6315 74.7316 96.8579 95.6503 96.8579 95.6503Z" fill="white"/>
<path d="M205.689 188.371V236.821C205.689 289.137 163.367 331.548 111.16 331.548C78.4989 331.548 49.7068 314.949 32.7256 289.711C73.7376 235.591 135.261 197.934 205.689 188.371Z" fill="#502F0F"/>
<path d="M188.844 290.811C171.773 315.433 143.345 331.551 111.159 331.551C58.9521 331.551 16.6299 289.141 16.6299 236.825V188.594C86.8734 198.569 148.139 236.51 188.844 290.811Z" fill="#502F0F"/>
<path d="M190.356 288.56C189.89 289.276 189.414 289.985 188.929 290.687C188.882 290.702 188.836 290.718 188.79 290.733C188.457 290.289 188.122 289.846 187.786 289.405C188.64 289.116 189.497 288.835 190.356 288.56Z" fill="white"/>
<path d="M201.095 266.076C200.906 266.661 200.711 267.244 200.511 267.824C192.155 269.707 184.014 272.159 176.131 275.136C175.76 274.713 175.388 274.292 175.014 273.871C183.432 270.661 192.143 268.045 201.095 266.076Z" fill="white"/>
<path d="M205.257 245.943C205.205 246.489 205.148 247.034 205.087 247.577C190.132 250.26 175.745 254.581 162.116 260.349C161.708 259.951 161.298 259.553 160.887 259.157C174.94 253.154 189.799 248.68 205.257 245.943Z" fill="white"/>
<path d="M205.69 226.663V228.262C184.942 231.596 165.154 237.809 146.747 246.479C146.301 246.107 145.853 245.737 145.405 245.368C164.207 236.434 184.45 230.051 205.69 226.663Z" fill="white"/>
<path d="M205.69 207.5V209.096C178.761 213.073 153.281 221.513 130.023 233.64C129.539 233.299 129.054 232.959 128.568 232.621C152.241 220.174 178.218 211.53 205.69 207.5Z" fill="white"/>
<path d="M205.69 188.371V189.965C171.949 194.575 140.269 205.672 111.941 221.962C111.42 221.655 110.897 221.349 110.373 221.045C139.131 204.374 171.352 193.034 205.69 188.371Z" fill="white"/>
<path d="M188.844 290.811C148.139 236.51 86.8734 198.569 16.6299 188.594V190.189C86.532 200.177 147.472 238.031 187.888 292.165C188.21 291.717 188.529 291.266 188.844 290.811Z" fill="white"/>
<path d="M176.211 305.555C138.986 254.075 82.1184 217.789 16.6299 207.741V209.338C81.6598 219.383 138.114 255.473 175.05 306.64C175.44 306.282 175.827 305.92 176.211 305.555Z" fill="white"/>
<path d="M161.263 317.166C127.49 270.185 76.0163 236.834 16.6299 226.924V228.524C75.449 238.413 126.431 271.462 159.917 317.995C160.368 317.722 160.817 317.446 161.263 317.166Z" fill="white"/>
<path d="M144.045 325.662C113.808 284.939 68.8642 255.832 17.0907 246.237C17.1446 246.785 17.2032 247.331 17.2664 247.876C68.2846 257.455 112.586 286.134 142.496 326.222C143.014 326.04 143.531 325.853 144.045 325.662Z" fill="white"/>
<path d="M124.004 330.684C98.3083 298.981 62.4243 275.905 21.3488 266.462C21.5424 267.052 21.7416 267.638 21.9463 268.222C61.9472 277.643 96.9257 300.118 122.16 330.917C122.776 330.845 123.391 330.768 124.004 330.684Z" fill="white"/>
<path d="M98.7298 330.74C80.4116 312.065 57.7541 297.678 32.394 289.219C32.88 289.951 33.3758 290.676 33.8813 291.394C57.5269 299.619 78.7351 313.067 96.1304 330.361C96.9931 330.499 97.8596 330.625 98.7298 330.74Z" fill="white"/>
<path fill-rule="evenodd" clip-rule="evenodd" d="M204.113 236.826V110.524C204.113 59.0795 162.496 17.3757 111.159 17.3757C59.8222 17.3757 18.2054 59.0795 18.2054 110.524V236.826C18.2054 288.27 59.8222 329.974 111.159 329.974C162.496 329.974 204.113 288.27 204.113 236.826ZM111.159 15.7969C58.9521 15.7969 16.6299 58.2075 16.6299 110.524V236.826C16.6299 289.142 58.9521 331.553 111.159 331.553C163.366 331.553 205.688 289.142 205.688 236.826V110.524C205.688 58.2075 163.366 15.7969 111.159 15.7969Z" fill="#502F0F"/>
</svg>
