<svg width="235" height="149" viewBox="0 0 235 149" fill="none" xmlns="http://www.w3.org/2000/svg">
<path d="M109.083 54.6298L111.117 54.1226V32.4829L109.083 31.9757V31.4685H117.725C121.769 31.4685 124.865 32.5054 127.011 34.5792C129.18 36.653 130.264 39.5609 130.264 43.3027C130.264 47.0446 129.18 49.9525 127.011 52.0263C124.865 54.1001 121.769 55.137 117.725 55.137H109.083V54.6298ZM117.725 54.2917C119.826 54.2917 121.453 53.4464 122.605 51.7558C123.758 50.0426 124.334 47.225 124.334 43.3027C124.334 39.3805 123.758 36.5741 122.605 34.8835C121.453 33.1704 119.826 32.3138 117.725 32.3138H116.709V54.2917H117.725Z" fill="#502F0F"/>
<path d="M133.309 55.137V54.6298L135.342 54.1226V32.4829L133.309 31.9757V31.4685H142.968V31.9757L140.934 32.4829V54.1226L142.968 54.6298V55.137H133.309Z" fill="#502F0F"/>
<path d="M146.018 54.6298L148.051 54.1226V32.4829L146.018 31.9757V31.4685H155.676V31.9757L153.643 32.4829V54.2917H160.929C160.929 52.8716 161.29 51.5529 162.013 50.3357C162.33 49.8172 162.703 49.3889 163.132 49.0508H164.148V55.137H146.018V54.6298Z" fill="#502F0F"/>
<path d="M166.702 54.6298L168.735 54.1226V32.4829L166.702 31.9757V31.4685H175.852C179.286 31.4685 181.805 32.0208 183.41 33.1253C185.036 34.2073 185.85 35.6274 185.85 37.3856C185.85 38.6029 185.499 39.5834 184.799 40.3273C184.099 41.0711 183.206 41.6234 182.122 41.9841C180.97 42.3898 179.727 42.604 178.394 42.6265V42.7956C180.043 42.8632 181.478 43.1111 182.698 43.5394C183.941 43.9452 184.968 44.5763 185.782 45.4329C186.618 46.2895 187.036 47.3827 187.036 48.7127C187.036 50.7189 186.211 52.2968 184.562 53.4464C182.913 54.5735 180.235 55.137 176.53 55.137H166.702V54.6298ZM175.852 42.2884C176.598 42.2884 177.287 42.0855 177.919 41.6798C178.575 41.2515 179.094 40.6654 179.478 39.9215C179.885 39.1551 180.088 38.3098 180.088 37.3856C180.088 36.3938 179.885 35.5147 179.478 34.7483C179.094 33.9819 178.575 33.3845 177.919 32.9562C177.287 32.5279 176.598 32.3138 175.852 32.3138H174.327V42.2884H175.852ZM176.53 54.2917C177.931 54.2917 179.072 53.7958 179.953 52.804C180.834 51.8121 181.275 50.4484 181.275 48.7127C181.275 46.977 180.834 45.6132 179.953 44.6214C179.072 43.6296 177.931 43.1337 176.53 43.1337H174.327V54.2917H176.53Z" fill="#502F0F"/>
<path d="M186.702 54.6298L189.413 53.6154L198.733 31.1304H199.75L209.408 54.1226L211.103 54.6298V55.137H207.036C205.861 55.137 204.901 54.8778 204.155 54.3593C203.41 53.8183 202.856 53.1195 202.495 52.263L200.766 48.2055H192.667L190.43 53.6154L192.972 54.6298V55.137H186.702V54.6298ZM193.006 47.3602H200.427L196.7 38.4676L193.006 47.3602Z" fill="#502F0F"/>
<path d="M212.109 54.6298L214.142 54.1226V32.4829L212.109 31.9757V31.4685H221.089C224.93 31.4685 227.698 32.0546 229.392 33.2267C231.087 34.3763 231.934 35.9881 231.934 38.0619C231.934 39.4594 231.561 40.5978 230.816 41.4769C230.07 42.3335 229.11 42.9759 227.935 43.4042C226.692 43.8776 225.371 44.1255 223.97 44.148V44.3171C224.806 44.3622 225.54 44.4862 226.173 44.689C227.754 45.185 228.827 46.0753 229.392 47.3602L232.442 54.1226L234.137 54.6298V55.137H229.392C227.54 55.137 226.184 54.179 225.326 52.263L221.937 44.6552H219.734V54.1226L222.106 54.6298V55.137H212.109V54.6298ZM221.089 43.8099C222.671 43.8099 223.913 43.314 224.817 42.3222C225.721 41.3304 226.173 39.9103 226.173 38.0619C226.173 36.2135 225.721 34.7934 224.817 33.8015C223.913 32.8097 222.671 32.3138 221.089 32.3138H219.734V43.8099H221.089Z" fill="#502F0F"/>
<path d="M141.472 117.477C132.595 117.477 125.878 115.621 121.319 111.909C116.761 108.144 114.482 102.872 114.482 96.0939V62.2041L109.083 60.9938V59.7834H134.725V60.9938L129.326 62.2041V96.0939C129.326 103.033 130.526 108.009 132.925 111.022C135.324 113.98 138.773 115.46 143.272 115.46C146.031 115.46 148.64 114.68 151.099 113.12C153.618 111.506 155.627 109.246 157.127 106.342C158.686 103.383 159.466 99.9671 159.466 96.0939V63.4145L152.269 60.9938V59.7834H169.363V60.9938L162.165 63.4145V96.0939C162.165 100.451 161.265 104.244 159.466 107.471C157.667 110.699 155.207 113.173 152.089 114.895C148.97 116.616 145.431 117.477 141.472 117.477Z" fill="#502F0F"/>
<path d="M182.405 73.5007V112.635L189.602 115.056V116.266H172.508V115.056L179.706 112.635V62.6076L173.408 60.9938V59.7834H182.854C186.033 59.7834 188.523 60.2945 190.322 61.3166C192.121 62.3386 193.831 63.7104 195.45 65.4317L224.24 95.6905V63.4145L217.043 60.9938V59.7834H234.137V60.9938L226.939 63.4145V117.477H224.24L182.405 73.5007Z" fill="#502F0F"/>
<path d="M0 47.1965C0 21.1306 21.0865 0 47.098 0C73.1096 0 94.1961 21.1306 94.1961 47.1965V101.135C94.1961 127.201 73.1096 148.332 47.098 148.332C21.0865 148.332 0 127.201 0 101.135V47.1965Z" fill="white"/>
<path fill-rule="evenodd" clip-rule="evenodd" d="M93.5233 101.135V47.1965C93.5233 21.503 72.738 0.674235 47.098 0.674235C21.4581 0.674235 0.672829 21.503 0.672829 47.1965V101.135C0.672829 126.829 21.4581 147.658 47.098 147.658C72.738 147.658 93.5233 126.829 93.5233 101.135ZM47.098 0C21.0865 0 0 21.1306 0 47.1965V101.135C0 127.201 21.0865 148.332 47.098 148.332C73.1096 148.332 94.1961 127.201 94.1961 101.135V47.1965C94.1961 21.1306 73.1096 0 47.098 0Z" fill="#905925"/>
<path d="M6.72858 47.2005C6.72858 24.8583 24.8027 6.74634 47.0983 6.74634C69.3939 6.74634 87.4681 24.8583 87.4681 47.2005V101.139C87.4681 123.481 69.3939 141.593 47.0983 141.593C24.8027 141.593 6.72858 123.481 6.72858 101.139V47.2005Z" fill="#905925"/>
<path d="M23.4452 50.2684C23.6351 50.7664 23.8981 51.235 24.1465 51.7037C24.2049 51.8208 24.2926 51.938 24.351 52.0551C24.6724 53.3586 24.8185 55.8043 24.8624 58.3233C24.9354 61.8967 27.4921 64.9136 30.9985 65.5726C35.9952 66.4953 42.7158 68.0184 45.8131 69.9369C45.93 70.0101 46.0469 70.098 46.1491 70.1859L46.9673 70.8888C46.9673 70.8888 47.0403 70.9621 47.0695 70.9767C47.0695 70.9767 47.0695 70.9767 47.0695 70.9913C47.0695 70.9913 47.0696 70.9913 47.0842 70.9913C47.0842 70.9913 47.0842 70.9913 47.0988 70.9913C47.0988 70.9913 47.0988 70.9914 47.0988 70.9767C47.128 70.9474 47.1718 70.9328 47.201 70.8888L48.0192 70.1859C48.1215 70.098 48.2383 70.0101 48.3552 69.9369C51.4525 68.0184 58.1732 66.4953 63.1698 65.5726C66.6762 64.9283 69.2329 61.8967 69.306 58.3233C69.3644 55.8043 69.4959 53.3586 69.8173 52.0551C69.8758 51.938 69.9634 51.8208 70.0219 51.7037C70.2703 51.235 70.5332 50.7664 70.7231 50.2684C71.1322 49.2872 71.439 48.262 71.702 47.2369C72.2134 45.1866 72.5202 43.0923 72.6517 40.998C72.4033 43.0923 71.9796 45.1573 71.3806 47.149C70.8693 48.9064 70.0949 50.5467 69.1453 52.0991C66.121 54.0615 59.2689 55.6139 54.1846 56.5512C50.6782 57.1956 48.1215 60.2271 48.0484 63.8006C47.99 66.8761 47.8001 69.8783 47.2887 70.757C47.2157 70.8302 47.1572 70.9035 47.0988 70.9767C47.0403 70.9035 46.9673 70.8302 46.9089 70.757C46.3975 69.8637 46.2076 66.8614 46.1491 63.8006C46.0761 60.2271 43.5193 57.2102 40.0129 56.5512C34.9433 55.6139 28.0912 54.0469 25.0523 52.0991C24.1026 50.5613 23.3283 48.9064 22.817 47.149C22.2033 45.1426 21.7943 43.0777 21.5459 40.998C21.6774 43.0923 21.9842 45.1866 22.4955 47.2369C22.7585 48.262 23.0653 49.2725 23.4744 50.2684H23.4452Z" fill="white"/>
<path d="M69.1303 66.3171C66.106 68.2796 59.2539 69.8319 54.1696 70.7692C50.6632 71.4136 48.1065 74.4452 48.0334 78.0186C47.975 81.0941 47.7851 84.0963 47.2737 84.9751C47.2007 85.0483 47.1422 85.1215 47.0838 85.1947C47.0253 85.1215 46.9523 85.0483 46.8938 84.9751C46.3825 84.0817 46.1926 81.0794 46.1341 78.0186C46.0611 74.4452 43.5043 71.4283 39.9979 70.7692C34.9283 69.8319 28.0762 68.2649 25.0373 66.3171C24.0876 64.7794 23.3133 63.1245 22.802 61.367C22.1883 59.3606 21.7793 57.2957 21.5309 55.2161C21.6624 57.3103 21.9692 59.4046 22.4805 61.4549C22.7435 62.4801 23.0503 63.4906 23.4594 64.4865C23.6493 64.9844 23.9123 65.453 24.1607 65.9217C24.2191 66.0388 24.3068 66.156 24.3652 66.2732C24.6866 67.5766 24.8328 70.0223 24.8766 72.5413C24.9496 76.1147 27.5064 79.1316 31.0128 79.7907C36.0094 80.7133 42.73 82.2364 45.8273 84.1549C45.9442 84.2282 46.0611 84.316 46.1633 84.4039L46.9815 85.1069C46.9815 85.1069 47.0546 85.1801 47.0838 85.1947C47.0838 85.1947 47.0838 85.1947 47.0838 85.2094C47.0838 85.2094 47.0838 85.2094 47.0984 85.2094C47.0984 85.2094 47.0984 85.2094 47.113 85.2094C47.113 85.2094 47.113 85.2094 47.113 85.1947C47.1422 85.1654 47.186 85.1508 47.2153 85.1069L48.0334 84.4039C48.1357 84.316 48.2526 84.2282 48.3695 84.1549C51.4668 82.2364 58.1874 80.7133 63.184 79.7907C66.6904 79.1463 69.2472 76.1147 69.3202 72.5413C69.3786 70.0223 69.5101 67.5766 69.8316 66.2732C69.89 66.156 69.9776 66.0388 70.0361 65.9217C70.2845 65.453 70.5474 64.9844 70.7374 64.4865C71.1465 63.5052 71.4532 62.4801 71.7162 61.4549C72.2276 59.4046 72.5344 57.3103 72.6659 55.2161C72.4175 57.3103 71.9938 59.3753 71.3948 61.367C70.8835 63.1245 70.1091 64.7647 69.1595 66.3171H69.1303Z" fill="white"/>
<path d="M69.1303 80.5537C66.106 82.5161 59.2539 84.0685 54.1696 85.0058C50.6632 85.6502 48.1065 88.6818 48.0334 92.2552C47.975 95.3307 47.7851 98.3329 47.2737 99.2116C47.2007 99.2849 47.1422 99.3581 47.0838 99.4313C47.0253 99.3581 46.9523 99.2849 46.8938 99.2116C46.3825 98.3183 46.1926 95.316 46.1341 92.2552C46.0611 88.6818 43.5043 85.6648 39.9979 85.0058C34.9283 84.0685 28.0762 82.5015 25.0373 80.5537C24.0876 79.0159 23.3133 77.361 22.802 75.6036C22.1883 73.5972 21.7793 71.5323 21.5309 69.4526C21.6624 71.5469 21.9692 73.6411 22.4805 75.6915C22.7435 76.7166 23.0503 77.7272 23.4594 78.723C23.6493 79.221 23.9123 79.6896 24.1607 80.1583C24.2191 80.2754 24.3068 80.3926 24.3652 80.5097C24.6866 81.8132 24.8328 84.2589 24.8766 86.7779C24.9496 90.3513 27.5064 93.3682 31.0128 94.0272C36.0094 94.9499 42.73 96.473 45.8273 98.3915C45.9442 98.4647 46.0611 98.5526 46.1633 98.6405L46.9815 99.3434C46.9815 99.3434 47.0546 99.4167 47.0838 99.4313C47.0838 99.4313 47.0838 99.4313 47.0838 99.4459C47.0838 99.4459 47.0838 99.4459 47.0984 99.4459C47.0984 99.4459 47.0984 99.4459 47.113 99.4459C47.113 99.4459 47.113 99.4459 47.113 99.4313C47.1422 99.402 47.186 99.3874 47.2153 99.3434L48.0334 98.6405C48.1357 98.5526 48.2526 98.4647 48.3695 98.3915C51.4668 96.473 58.1874 94.9499 63.184 94.0272C66.6904 93.3828 69.2472 90.3513 69.3202 86.7779C69.3786 84.2589 69.5101 81.8132 69.8316 80.5097C69.89 80.3926 69.9776 80.2754 70.0361 80.1583C70.2845 79.6896 70.5474 79.221 70.7374 78.723C71.1465 77.7418 71.4532 76.7166 71.7162 75.6915C72.2276 73.6411 72.5344 71.5469 72.6659 69.4526C72.4175 71.5469 71.9938 73.6119 71.3948 75.6036C70.8835 77.361 70.1091 79.0013 69.1595 80.5537H69.1303Z" fill="white"/>
<path d="M69.1303 94.7868C66.106 96.7493 59.2539 98.3017 54.1696 99.239C50.6632 99.8833 48.1065 102.915 48.0334 106.488C47.975 109.564 47.7851 112.566 47.2737 113.445C47.2007 113.518 47.1422 113.591 47.0838 113.664C47.0253 113.591 46.9523 113.518 46.8938 113.445C46.3825 112.551 46.1926 109.549 46.1341 106.488C46.0611 102.915 43.5043 99.898 39.9979 99.239C34.9283 98.3017 28.0762 96.7346 25.0373 94.7868C24.0876 93.2491 23.3133 91.5942 22.802 89.8368C22.1883 87.8304 21.7793 85.7654 21.5309 83.6858C21.6624 85.7801 21.9692 87.8743 22.4805 89.9246C22.7435 90.9498 23.0503 91.9603 23.4594 92.9562C23.6493 93.4541 23.9123 93.9228 24.1607 94.3914C24.2191 94.5086 24.3068 94.6257 24.3652 94.7429C24.6866 96.0463 24.8328 98.4921 24.8766 101.011C24.9496 104.584 27.5064 107.601 31.0128 108.26C36.0094 109.183 42.73 110.706 45.8273 112.625C45.9442 112.698 46.0611 112.786 46.1633 112.874L46.9815 113.577C46.9815 113.577 47.0546 113.65 47.0838 113.664C47.0838 113.664 47.0838 113.664 47.0838 113.679C47.0838 113.679 47.0838 113.679 47.0984 113.679C47.0984 113.679 47.0984 113.679 47.113 113.679C47.113 113.679 47.113 113.679 47.113 113.664C47.1422 113.635 47.186 113.621 47.2153 113.577L48.0334 112.874C48.1357 112.786 48.2526 112.698 48.3695 112.625C51.4668 110.706 58.1874 109.183 63.184 108.26C66.6904 107.616 69.2472 104.584 69.3202 101.011C69.3786 98.4921 69.5101 96.0463 69.8316 94.7429C69.89 94.6257 69.9776 94.5086 70.0361 94.3914C70.2845 93.9228 70.5474 93.4541 70.7374 92.9562C71.1465 91.975 71.4532 90.9498 71.7162 89.9246C72.2276 87.8743 72.5344 85.7801 72.6659 83.6858C72.4175 85.7801 71.9938 87.845 71.3948 89.8368C70.8835 91.5942 70.1091 93.2344 69.1595 94.7868H69.1303Z" fill="white"/>
<path d="M27.039 35.8423C27.1558 36.3256 27.3311 36.7942 27.5065 37.2482C27.5503 37.3654 27.6087 37.4825 27.6526 37.5997C27.7841 38.8445 27.6087 41.1145 27.3312 43.4431C26.9513 46.7383 28.9236 49.8577 32.0648 50.8975C36.5501 52.3913 42.5402 54.632 45.1553 56.7995C45.2576 56.8874 45.3453 56.9753 45.4329 57.0631L46.105 57.81C46.105 57.81 46.1634 57.8832 46.1927 57.9125C46.1927 57.9125 46.1927 57.9125 46.1781 57.9125C46.1781 57.9125 46.1781 57.9125 46.1927 57.9125C46.1488 57.8393 46.0904 57.7515 46.0466 57.6782C45.6959 56.7849 45.9005 54.0023 46.2219 51.1758C46.6018 47.8806 44.6294 44.7612 41.4882 43.7214C36.9299 42.2129 30.823 39.9136 28.2808 37.7169C27.6088 36.1791 27.0974 34.5681 26.849 32.8839C26.5422 30.9654 26.4107 29.003 26.4546 27.0552C26.3085 29.003 26.3377 30.9654 26.5422 32.9279C26.6445 33.9091 26.8052 34.8757 27.0536 35.8423H27.039Z" fill="white"/>
<path d="M47.9602 51.1758C48.2816 54.0169 48.5008 56.7995 48.1355 57.6782C48.0771 57.7515 48.0332 57.8247 47.9894 57.8979C47.9894 57.8979 47.9894 57.8979 48.004 57.9125C48.004 57.9125 48.004 57.9125 47.9894 57.9125C48.0186 57.8832 48.0479 57.854 48.0771 57.81L48.7491 57.0631C48.8368 56.9606 48.9245 56.8727 49.0267 56.7995C51.6419 54.6467 57.632 52.3913 62.1173 50.8975C65.2585 49.8577 67.2308 46.7383 66.8509 43.4431C66.5879 41.1145 66.398 38.8445 66.5295 37.5997C66.5733 37.4825 66.6318 37.3654 66.6756 37.2482C66.8509 36.7796 67.0263 36.3256 67.1431 35.8423C67.3915 34.8757 67.5522 33.9091 67.6545 32.9279C67.859 30.9654 67.8736 29.003 67.7421 27.0552C67.7713 29.003 67.6545 30.9654 67.3477 32.8839C67.0993 34.5681 66.5879 36.1791 65.9159 37.7169C63.3737 39.899 57.2668 42.2129 52.7084 43.7214C49.5673 44.7612 47.595 47.8806 47.9748 51.1758H47.9602Z" fill="white"/>
<path d="M40.9909 40.8503C46.0021 41.3922 47.0979 47.133 47.0979 47.133C47.0833 47.1184 47.1125 47.1184 47.0979 47.133C47.0979 47.133 48.179 41.3775 53.2049 40.8503C53.2049 40.8503 55.8639 31.9167 47.3462 23.115L47.0979 11.062L46.8495 23.115C38.3319 31.9167 40.9909 40.8503 40.9909 40.8503Z" fill="white"/>
<path d="M87.4683 80.446V101.137C87.4683 123.479 69.3942 141.591 47.0986 141.591C33.1505 141.591 20.8545 134.503 13.6025 123.724C31.1171 100.612 57.3913 84.5302 87.4683 80.446Z" fill="#502F0F"/>
<path d="M80.2746 124.194C72.9842 134.709 60.8435 141.593 47.0984 141.593C24.8028 141.593 6.72864 123.481 6.72864 101.139V80.5413C36.7269 84.8011 62.8909 101.004 80.2746 124.194Z" fill="#502F0F"/>
<path d="M80.9204 123.233C80.7212 123.539 80.518 123.841 80.3108 124.141C80.291 124.148 80.2712 124.154 80.2513 124.161C80.1091 123.971 79.9663 123.782 79.8229 123.593C80.1874 123.47 80.5533 123.35 80.9204 123.233Z" fill="white"/>
<path d="M85.5066 113.631C85.4257 113.881 85.3425 114.129 85.2569 114.377C81.6886 115.181 78.212 116.228 74.8453 117.5C74.6869 117.319 74.528 117.139 74.3685 116.96C77.9634 115.589 81.6834 114.472 85.5066 113.631Z" fill="white"/>
<path d="M87.2839 105.033C87.2616 105.266 87.2374 105.499 87.2113 105.731C80.8247 106.876 74.6804 108.722 68.8601 111.185C68.6856 111.015 68.5106 110.845 68.3351 110.676C74.3366 108.112 80.6825 106.202 87.2839 105.033Z" fill="white"/>
<path d="M87.4687 96.7988V97.4817C78.6081 98.9056 70.1575 101.559 62.2965 105.262C62.106 105.103 61.9149 104.945 61.7233 104.787C69.753 100.972 78.3981 98.2458 87.4687 96.7988Z" fill="white"/>
<path d="M87.4687 88.6155V89.297C75.9684 90.9954 65.0871 94.5995 55.1545 99.7787C54.9478 99.6329 54.7406 99.4877 54.533 99.3433C64.6428 94.0278 75.7364 90.3365 87.4687 88.6155Z" fill="white"/>
<path d="M87.4687 80.446V81.1266C73.0595 83.0954 59.5301 87.8347 47.4324 94.7914C47.2096 94.6602 46.9863 94.5297 46.7625 94.3999C59.0443 87.2805 72.8045 82.4373 87.4687 80.446Z" fill="white"/>
<path d="M80.2746 124.194C62.8909 101.004 36.7269 84.8011 6.72864 80.5413V81.2224C36.5811 85.488 62.6061 101.654 79.8662 124.773C80.004 124.581 80.1401 124.388 80.2746 124.194Z" fill="white"/>
<path d="M74.8793 130.491C58.9819 108.506 34.6962 93.0093 6.72864 88.7182V89.4004C34.5003 93.6903 58.6097 109.103 74.3835 130.954C74.55 130.801 74.7153 130.647 74.8793 130.491Z" fill="white"/>
<path d="M68.4957 135.449C54.0729 115.386 32.0903 101.143 6.72864 96.9104V97.5941C31.848 101.817 53.6203 115.931 67.9209 135.803C68.1135 135.687 68.3051 135.569 68.4957 135.449Z" fill="white"/>
<path d="M61.1425 139.078C48.2298 121.687 29.0358 109.256 6.92544 105.159C6.94846 105.392 6.97348 105.626 7.00046 105.859C28.7883 109.949 47.7078 122.197 60.4812 139.317C60.7025 139.239 60.9229 139.159 61.1425 139.078Z" fill="white"/>
<path d="M52.5839 141.223C41.6103 127.683 26.2856 117.828 8.74392 113.796C8.82658 114.048 8.91163 114.298 8.99906 114.548C26.0819 118.571 41.0198 128.169 51.7962 141.322C52.0596 141.291 52.3221 141.258 52.5839 141.223Z" fill="white"/>
<path d="M41.7903 141.246C33.9673 133.271 24.2912 127.127 13.4609 123.514C13.6684 123.827 13.8802 124.137 14.0961 124.443C24.1942 127.956 33.2513 133.699 40.6802 141.084C41.0486 141.143 41.4187 141.197 41.7903 141.246Z" fill="white"/>
<path fill-rule="evenodd" clip-rule="evenodd" d="M86.7952 101.139V47.2005C86.7952 25.2306 69.0223 7.42057 47.0983 7.42057C25.1743 7.42057 7.40141 25.2306 7.40141 47.2005V101.139C7.40141 123.109 25.1743 140.919 47.0983 140.919C69.0223 140.919 86.7952 123.109 86.7952 101.139ZM47.0983 6.74634C24.8027 6.74634 6.72858 24.8583 6.72858 47.2005V101.139C6.72858 123.481 24.8027 141.593 47.0983 141.593C69.3939 141.593 87.4681 123.481 87.4681 101.139V47.2005C87.4681 24.8583 69.3939 6.74634 47.0983 6.74634Z" fill="#502F0F"/>
</svg>
